<svg width="496" height="595" viewBox="0 0 496 595" fill="none" xmlns="http://www.w3.org/2000/svg">
<g opacity="0.7">
<g style="mix-blend-mode:darken">
<rect width="495.833" height="595" fill="url(#paint0_linear)"/>
</g>
</g>
<g opacity="0.2">
<g style="mix-blend-mode:darken">
<mask id="mask0" mask-type="alpha" maskUnits="userSpaceOnUse" x="0" y="0" width="496" height="595">
<rect width="495.833" height="595" fill="white"/>
</mask>
<g mask="url(#mask0)">
<rect width="495.833" height="595" fill="url(#paint1_linear)"/>
<g style="mix-blend-mode:overlay">
<path fill-rule="evenodd" clip-rule="evenodd" d="M605.578 453.632L580.346 430.071C555.113 406.51 504.648 359.387 454.184 343.68C403.719 327.972 353.254 343.68 302.789 351.534C252.324 359.387 201.86 359.387 151.395 327.972C100.93 296.557 50.4652 233.727 25.2328 202.312L0.000346184 170.897V595H25.2328C50.4652 595 100.93 595 151.395 595C201.86 595 252.324 595 302.789 595C353.254 595 403.719 595 454.184 595C504.648 595 555.113 595 580.346 595H605.578V453.632Z" fill="black"/>
</g>
<path fill-rule="evenodd" clip-rule="evenodd" d="M-150.869 184.612H-117.231C-83.5919 184.612 -16.3147 184.612 50.9626 237.81C118.24 291.009 185.517 397.406 252.794 443.004C320.072 488.603 387.349 473.403 454.626 427.805C521.903 382.206 589.181 306.208 622.819 268.209L656.458 230.21V595H622.819C589.181 595 521.903 595 454.626 595C387.349 595 320.072 595 252.794 595C185.517 595 118.24 595 50.9626 595C-16.3147 595 -83.5919 595 -117.231 595H-150.869V184.612Z" fill="#FF1AA3"/>
</g>
</g>
</g>
<g style="mix-blend-mode:darken">
<mask id="mask1" mask-type="alpha" maskUnits="userSpaceOnUse" x="0" y="0" width="496" height="595">
<rect width="495.833" height="595" fill="white"/>
</mask>
<g mask="url(#mask1)">
<rect opacity="0.8" width="495.833" height="595" fill="url(#paint2_linear)"/>
<path fill-rule="evenodd" clip-rule="evenodd" d="M-144.121 252.875H-110.487C-76.853 252.875 -9.58498 252.875 57.6831 297.225C124.951 341.574 192.219 430.273 259.487 468.287C326.755 506.301 394.023 493.63 461.291 455.616C528.559 417.602 595.828 354.245 629.462 322.567L663.096 290.889V595H629.462C595.828 595 528.559 595 461.291 595C394.023 595 326.755 595 259.487 595C192.219 595 124.951 595 57.6831 595C-9.58498 595 -76.853 595 -110.487 595H-144.121V252.875Z" fill="#F7F7FA"/>
<path fill-rule="evenodd" clip-rule="evenodd" d="M-150.732 153.708H-117.098C-83.4644 153.708 -16.1963 153.708 51.0717 198.058C118.34 242.407 185.608 331.106 252.876 369.12C320.144 407.134 387.412 394.463 454.68 356.449C521.948 318.435 589.216 255.079 622.85 223.4L656.484 191.722V495.833H622.85C589.216 495.833 521.948 495.833 454.68 495.833C387.412 495.833 320.144 495.833 252.876 495.833C185.608 495.833 118.34 495.833 51.0717 495.833C-16.1963 495.833 -83.4644 495.833 -117.098 495.833H-150.732V153.708Z" fill="#F7F7FA"/>
<path opacity="0.5" fill-rule="evenodd" clip-rule="evenodd" d="M550.705 424.323L525.473 395.877C500.24 367.431 449.775 310.539 399.311 291.575C348.846 272.61 298.381 291.575 247.916 301.057C197.451 310.539 146.987 310.539 96.5217 272.61C46.0569 234.682 -4.40789 158.826 -29.6403 120.898L-54.8727 82.9695V595H-29.6403C-4.40789 595 46.0569 595 96.5217 595C146.987 595 197.451 595 247.916 595C298.381 595 348.846 595 399.311 595C449.775 595 500.24 595 525.473 595H550.705V424.323Z" fill="url(#paint3_linear)"/>
<path fill-rule="evenodd" clip-rule="evenodd" d="M-155.691 247.917H-122.053C-88.4142 247.917 -21.1369 247.917 46.1403 292.249C113.418 336.581 180.695 425.245 247.972 463.244C315.249 501.243 382.527 488.577 449.804 450.578C517.081 412.579 584.358 349.247 617.997 317.581L651.636 285.916V589.907H617.997C584.358 589.907 517.081 589.907 449.804 589.907C382.527 589.907 315.249 589.907 247.972 589.907C180.695 589.907 113.418 589.907 46.1403 589.907C-21.1369 589.907 -88.4142 589.907 -122.053 589.907H-155.691V247.917Z" fill="#F7F7FA"/>
</g>
</g>
<defs>
<linearGradient id="paint0_linear" x1="-160.159" y1="204.427" x2="269.791" y2="725.844" gradientUnits="userSpaceOnUse">
<stop/>
<stop offset="1" stop-color="#004FC4"/>
</linearGradient>
<linearGradient id="paint1_linear" x1="-160.159" y1="204.427" x2="269.791" y2="725.844" gradientUnits="userSpaceOnUse">
<stop/>
<stop offset="1" stop-color="#004FC4"/>
</linearGradient>
<linearGradient id="paint2_linear" x1="-160.159" y1="204.427" x2="269.791" y2="725.844" gradientUnits="userSpaceOnUse">
<stop/>
<stop offset="1" stop-color="#004FC4"/>
</linearGradient>
<linearGradient id="paint3_linear" x1="746.312" y1="258.891" x2="418.881" y2="822.452" gradientUnits="userSpaceOnUse">
<stop/>
<stop offset="1" stop-color="#004FC4"/>
</linearGradient>
</defs>
</svg>
