<svg width="758" height="550" viewBox="0 0 758 550" fill="none" xmlns="http://www.w3.org/2000/svg">
<g filter="url(#filter0_d)">
<g clip-path="url(#clip0)">
<rect x="38" width="720" height="512" rx="10" fill="#031B38"/>
<path d="M357.896 358.429C301.326 336.28 273.422 272.466 295.571 215.896" stroke="#86FAF3" stroke-width="2.5" stroke-linecap="round"/>
<path d="M744.886 391.762C669.896 583.296 453.835 677.773 262.302 602.782" stroke="#86FAF3" stroke-width="2.5" stroke-linecap="round"/>
<path d="M539.918 356.633C595.555 278.257 577.121 169.617 498.744 113.981C420.368 58.3436 311.728 76.7776 256.091 155.154" stroke="#86FAF3" stroke-width="2.5" stroke-linecap="round"/>
<path d="M89.6779 347.022C39.4217 176.808 136.666 -1.91777 306.88 -52.174" stroke="#86FAF3" stroke-width="2.5" stroke-linecap="round"/>
<path d="M299.11 17.6973C167.492 72.3412 105.092 223.336 159.736 354.955C214.38 486.573 365.375 548.973 496.993 494.329" stroke="#86FAF3" stroke-width="2.5" stroke-linecap="round"/>
<path d="M470.445 222.956C465.795 212.649 459.007 203.448 450.53 195.964C442.053 188.48 432.081 182.885 421.276 179.549C410.472 176.213 399.081 175.213 387.861 176.616" stroke="#86FAF3" stroke-width="2.5" stroke-linecap="round"/>
<path d="M426.813 227.186C419.323 219.565 409.14 215.191 398.456 215.006C387.772 214.821 377.443 218.84 369.694 226.196" stroke="#86FAF3" stroke-width="2.5" stroke-linecap="round"/>
<circle cx="398" cy="256" r="10.5" stroke="#86FAF3" stroke-width="2.5" stroke-linecap="round"/>
<path d="M690.284 424.75C597.086 586.174 390.674 641.482 229.25 548.284C67.8263 455.086 12.5184 248.674 105.716 87.25" stroke="#86FAF3" stroke-width="2.5" stroke-linecap="round"/>
<path d="M695 256C695 420.029 562.029 553 398 553C233.971 553 101 420.029 101 256" stroke="#86FAF3" stroke-width="2.5" stroke-linecap="round"/>
<path d="M743.544 455.5C853.725 264.661 788.339 20.6366 597.5 -89.5442C406.661 -199.725 162.637 -134.339 52.4558 56.4999" stroke="#86FAF3" stroke-width="2.5" stroke-linecap="round"/>
<path d="M743.5 256C743.5 65.1856 588.814 -89.5 398 -89.5" stroke="#86A0FA" stroke-width="2.5" stroke-linecap="round"/>
<path d="M757.5 256C757.5 454.546 596.546 615.5 398 615.5C199.454 615.5 38.5 454.546 38.5 256" stroke="#86FAF3" stroke-width="2.5" stroke-linecap="round"/>
<path d="M595.671 139.397C531.273 30.2258 390.567 -6.06944 281.397 58.3288C172.226 122.727 135.93 263.433 200.329 372.603" stroke="#86FAF3" stroke-width="2.5" stroke-linecap="round"/>
<path d="M563.909 537.256C408.576 628.885 208.373 577.242 116.744 421.909C25.1155 266.576 76.7581 66.3732 232.091 -25.2556" stroke="#7B8085" stroke-opacity="0.5" stroke-width="2.5" stroke-linecap="round"/>
<path d="M492.112 415.543C403.999 467.52 290.434 438.225 238.457 350.112C186.48 261.999 215.775 148.434 303.888 96.4569" stroke="#86A0FA" stroke-width="2.5" stroke-linecap="round"/>
<path d="M719.619 473.313C599.601 650.938 358.312 697.638 180.687 577.619C3.06157 457.601 -43.6379 216.312 76.3808 38.687" stroke="#86A0FA" stroke-width="2.5" stroke-linecap="round"/>
<path d="M623.671 122.916C697.218 247.595 655.766 408.289 531.087 481.836" stroke="#86A0FA" stroke-width="3.53747" stroke-linecap="round"/>
<path d="M476.266 209.832C501.764 253.057 487.393 308.768 444.168 334.266C400.943 359.764 345.232 345.393 319.734 302.168" stroke="#7B8085" stroke-opacity="0.5" stroke-width="2.5" stroke-linecap="round"/>
<path d="M502.648 194.27C536.74 252.065 517.526 326.555 459.73 360.648C401.935 394.74 327.445 375.526 293.352 317.73" stroke="#86FAF3" stroke-width="2.5" stroke-linecap="round"/>
<path d="M472.095 381.61C402.723 422.531 313.312 399.468 272.39 330.095C231.469 260.723 254.532 171.312 323.905 130.39" stroke="#86A0FA" stroke-width="2.5" stroke-linecap="round"/>
<circle cx="398" cy="256" r="420.5" stroke="#86FAF3" stroke-width="2.5" stroke-linecap="round"/>
<path d="M757.5 256C757.5 57.4536 596.546 -103.5 398 -103.5C199.454 -103.5 38.5 57.4536 38.5 256" stroke="#86A0FA" stroke-width="2.5" stroke-linecap="round"/>
<path d="M398 539C241.703 539 115 412.297 115 256C115 99.7034 241.703 -27 398 -27" stroke="#7B8085" stroke-opacity="0.5" stroke-width="2.5" stroke-linecap="round"/>
<path d="M398 685.5C160.794 685.5 -31.5 493.206 -31.5 256C-31.5 18.7937 160.794 -173.5 398 -173.5" stroke="#86A0FA" stroke-width="2.5" stroke-linecap="round"/>
<path d="M472.54 -22.1866C626.178 18.9806 717.354 176.902 676.186 330.54C635.019 484.178 477.098 575.354 323.46 534.187" stroke="#7B8085" stroke-opacity="0.5" stroke-width="2.5" stroke-linecap="round"/>
<path d="M472.54 -22.1866C626.178 18.9806 717.354 176.902 676.186 330.54C635.019 484.178 477.098 575.354 323.46 534.187" stroke="#7B8085" stroke-opacity="0.5" stroke-width="2.5" stroke-linecap="round"/>
<path d="M781.5 256C781.5 44.1988 609.801 -127.5 398 -127.5C186.199 -127.5 14.5 44.1988 14.5 256" stroke="#7B8085" stroke-opacity="0.5" stroke-width="2.5" stroke-linecap="round"/>
<path d="M781.5 256C781.5 44.1988 609.801 -127.5 398 -127.5C186.199 -127.5 14.5 44.1988 14.5 256" stroke="#7B8085" stroke-opacity="0.5" stroke-width="2.5" stroke-linecap="round"/>
<path d="M153.007 141.655C215.989 6.4745 376.632 -52.0539 511.812 10.9282C646.993 73.9104 705.521 234.553 642.539 369.734" stroke="#86FAF3" stroke-width="2.5" stroke-linecap="round"/>
<path d="M465.875 373.38C530.564 336.032 552.728 253.314 515.38 188.625C478.032 123.936 395.314 101.772 330.625 139.12" stroke="#86FAF3" stroke-width="2.5" stroke-linecap="round"/>
<path d="M603.5 256.25C603.5 369.606 511.606 461.5 398.25 461.5C284.894 461.5 193 369.606 193 256.25" stroke="#86FAF3" stroke-width="2.5" stroke-linecap="round"/>
<path d="M520.526 522.485C373.238 590.199 198.945 525.692 131.23 378.404" stroke="#7B8085" stroke-opacity="0.5" stroke-width="2.5" stroke-linecap="round"/>
<path d="M123.66 -13.2785C272.478 -164.891 516.025 -167.156 667.638 -18.3383" stroke="#7B8085" stroke-opacity="0.5" stroke-width="2.5" stroke-linecap="round"/>
<path d="M466.082 404.082C384.335 441.664 287.599 405.862 250.016 324.115C212.434 242.367 248.236 145.632 329.984 108.049" stroke="#7B8085" stroke-opacity="0.5" stroke-width="2.5" stroke-linecap="round"/>
<path d="M355.187 163.17C406.446 139.604 467.104 162.054 490.67 213.313" stroke="#7B8085" stroke-opacity="0.5" stroke-width="2.5" stroke-linecap="round"/>
<path d="M410.365 282.682C425.001 275.954 431.411 258.635 424.682 244" stroke="#7B8085" stroke-opacity="0.5" stroke-width="2.5" stroke-linecap="round"/>
<path d="M397.782 313.5C365.887 313.517 340.017 287.676 340 255.782" stroke="#86A0FA" stroke-width="2.5" stroke-linecap="round"/>
<path d="M392.999 273.088C383.48 270.538 377.831 260.754 380.382 251.235C382.932 241.716 392.716 236.068 402.235 238.618" stroke="#86A0FA" stroke-width="2.5" stroke-linecap="round"/>
<path d="M197.822 164.636C248.338 54.109 378.89 5.46051 489.417 55.9766C599.944 106.493 648.592 237.044 598.076 347.571" stroke="#86A0FA" stroke-width="2.5" stroke-linecap="round"/>
<path d="M312.15 -41.2313C476.307 -88.5416 647.735 6.18128 695.045 170.338C742.355 334.495 647.632 505.923 483.475 553.234" stroke="#86A0FA" stroke-width="2.5" stroke-linecap="round"/>
<path d="M385.286 212.023C360.793 219.082 346.66 244.659 353.719 269.152C360.778 293.645 386.355 307.778 410.848 300.719" stroke="#86A0FA" stroke-width="2.5" stroke-linecap="round"/>
<path d="M397.986 601.28C588.76 601.312 743.439 446.685 743.471 255.911" stroke="#86A0FA" stroke-width="2.5" stroke-linecap="round"/>
<path d="M397.865 497.566C264.459 497.544 156.33 389.379 156.352 255.972C156.375 122.566 264.54 14.4369 397.947 14.4594" stroke="#86A0FA" stroke-width="2.5" stroke-linecap="round"/>
<path d="M494.534 189.29C530.743 241.974 516.803 314.437 463.397 351.142" stroke="#354389" stroke-width="2.5" stroke-linecap="round"/>
<path d="M583.947 -113.294C785.126 -11.8945 864.886 235.628 762.097 439.562C659.308 643.496 412.894 726.617 211.716 625.217" stroke="#354389" stroke-width="2.5" stroke-linecap="round"/>
<path d="M557.354 146.141C617.039 232.982 594.06 352.427 506.03 412.929C418 473.431 298.253 452.079 238.568 365.239" stroke="#354389" stroke-width="2.5" stroke-linecap="round"/>
<path d="M665.499 193.344C631.222 47.6078 483.675 -42.3676 335.942 -7.62158" stroke="#354389" stroke-width="2.5" stroke-linecap="round"/>
<path d="M482.5 256C482.5 238.534 477.088 221.497 467.007 207.233C456.927 192.969 442.675 182.179 426.21 176.348C409.746 170.517 391.88 169.931 375.069 174.671C358.258 179.411 343.329 189.244 332.336 202.816" stroke="#86A0FA" stroke-width="2.5" stroke-linecap="round"/>
</g>
</g>
<defs>
<filter id="filter0_d" x="0.5" y="0" width="757.5" height="549.5" filterUnits="userSpaceOnUse" color-interpolation-filters="sRGB">
<feFlood flood-opacity="0" result="BackgroundImageFix"/>
<feColorMatrix in="SourceAlpha" type="matrix" values="0 0 0 0 0 0 0 0 0 0 0 0 0 0 0 0 0 0 127 0"/>
<feOffset dx="-25" dy="25"/>
<feGaussianBlur stdDeviation="6.25"/>
<feColorMatrix type="matrix" values="0 0 0 0 0 0 0 0 0 0 0 0 0 0 0 0 0 0 0.15 0"/>
<feBlend mode="normal" in2="BackgroundImageFix" result="effect1_dropShadow"/>
<feBlend mode="normal" in="SourceGraphic" in2="effect1_dropShadow" result="shape"/>
</filter>
<clipPath id="clip0">
<rect x="38" width="720" height="512" rx="10" fill="white"/>
</clipPath>
</defs>
</svg>
