<svg width="803" height="587" viewBox="0 0 803 587" fill="none" xmlns="http://www.w3.org/2000/svg">
<g filter="url(#filter0_d)">
<g clip-path="url(#clip0)">
<rect x="75" width="728" height="512" rx="20" fill="#0E0F37"/>
<line x1="49.1442" y1="236.621" x2="355.356" y2="-20.321" stroke="#0A0B2E" stroke-width="40"/>
<line x1="42.9303" y1="771.015" x2="1056.12" y2="-79.1511" stroke="#0A0B2E" stroke-width="50"/>
<line x1="255.517" y1="1085.79" x2="1555.2" y2="-4.77238" stroke="#0A0B2E" stroke-width="30"/>
<line x1="2.64923" y1="464.914" x2="582.784" y2="-21.8766" stroke="#0A0B2E" stroke-width="60"/>
<line x1="2.71637" y1="637.818" x2="828.363" y2="-54.9815" stroke="#0A0B2E" stroke-width="60"/>
<line x1="732.861" y1="1064.5" x2="1558.51" y2="371.698" stroke="#0A0B2E" stroke-width="100"/>
<line x1="528.603" y1="1077.64" x2="1538.12" y2="230.556" stroke="#0A0B2E" stroke-width="100"/>
<line x1="12.3582" y1="567.102" x2="719.775" y2="-26.4906" stroke="#0A0B2E" stroke-width="30"/>
<line x1="47.7668" y1="312.558" x2="465.805" y2="-38.2183" stroke="#0A0B2E" stroke-width="10"/>
<line x1="12.312" y1="126.293" x2="224.693" y2="-51.9158" stroke="#0A0B2E" stroke-width="70"/>
<line x1="14.5626" y1="1021.03" x2="1282.59" y2="-42.9713" stroke="#0A0B2E" stroke-width="90"/>
<line x1="39.3582" y1="710.947" x2="971.831" y2="-71.4907" stroke="#0A0B2E" stroke-width="30"/>
<line x1="129.089" y1="1073.31" x2="1445.73" y2="-31.4769" stroke="#0A0B2E" stroke-width="48"/>
<line x1="34.1673" y1="357.509" x2="493.397" y2="-27.8303" stroke="#0A0B2E" stroke-width="20"/>
<line x1="28.5721" y1="894.289" x2="1190.47" y2="-80.6604" stroke="#0A0B2E" stroke-width="20"/>
<line x1="335.367" y1="1072.73" x2="1556.71" y2="47.8995" stroke="#0A0B2E" stroke-width="101"/>
<line x1="426.095" y1="565.257" x2="555.224" y2="456.905" stroke="#4CC082" stroke-width="34" stroke-linecap="round"/>
<line x1="697.356" y1="406.71" x2="835.677" y2="290.644" stroke="#6F8EFF" stroke-width="22" stroke-linecap="round"/>
<line x1="130.583" y1="480.534" x2="287.205" y2="349.112" stroke="#6F8EFF" stroke-width="19" stroke-linecap="round"/>
<line x1="460.616" y1="92.2409" x2="517.815" y2="44.2454" stroke="#8D55E9" stroke-width="32" stroke-linecap="round"/>
<line x1="778.238" y1="629.869" x2="1010.55" y2="434.938" stroke="#EC6C5A" stroke-width="12" stroke-linecap="round"/>
<line x1="142.602" y1="265.283" x2="215.162" y2="204.398" stroke="#E350F0" stroke-width="26" stroke-linecap="round"/>
<line x1="51.0882" y1="434.87" x2="394.269" y2="146.907" stroke="#4CC082" stroke-linecap="round"/>
<line x1="383.062" y1="437.457" x2="676.851" y2="190.938" stroke="#4CC082" stroke-linecap="round"/>
<line x1="29.9118" y1="633.791" x2="273.445" y2="429.442" stroke="white" stroke-linecap="round"/>
<line x1="128.062" y1="181.618" x2="287.375" y2="47.9384" stroke="white" stroke-linecap="round"/>
<line x1="600.465" y1="599.817" x2="680.649" y2="532.535" stroke="#E350F0" stroke-width="40" stroke-linecap="round"/>
<line x1="642.157" y1="138.564" x2="770.534" y2="30.8431" stroke="#F4DC5A" stroke-width="35" stroke-linecap="round"/>
<line x1="398.081" y1="337.735" x2="451.492" y2="292.919" stroke="#6E8EFF" stroke-width="50" stroke-linecap="round"/>
<line x1="784.87" y1="242.072" x2="881.561" y2="160.939" stroke="#6E8EFF" stroke-width="32" stroke-linecap="round"/>
<line x1="413.123" y1="220.744" x2="766.917" y2="-76.1234" stroke="#F4DC5A" stroke-width="2" stroke-linecap="round"/>
<line x1="258.417" y1="117.058" x2="420.711" y2="-19.1224" stroke="#E350F0" stroke-width="4" stroke-linecap="round"/>
<line x1="678.123" y1="627.149" x2="1037.17" y2="325.877" stroke="#9E8F4D" stroke-width="2" stroke-linecap="round"/>
<line x1="588.493" y1="315.342" x2="842.14" y2="102.507" stroke="#FF5761" stroke-width="8" stroke-linecap="round"/>
<line x1="65.3833" y1="129.026" x2="158.19" y2="51.1526" stroke="#F4DC5A" stroke-width="24" stroke-linecap="round"/>
</g>
</g>
<defs>
<filter id="filter0_d" x="0" y="0" width="803" height="587" filterUnits="userSpaceOnUse" color-interpolation-filters="sRGB">
<feFlood flood-opacity="0" result="BackgroundImageFix"/>
<feColorMatrix in="SourceAlpha" type="matrix" values="0 0 0 0 0 0 0 0 0 0 0 0 0 0 0 0 0 0 127 0"/>
<feOffset dx="-50" dy="50"/>
<feGaussianBlur stdDeviation="12.5"/>
<feColorMatrix type="matrix" values="0 0 0 0 0 0 0 0 0 0 0 0 0 0 0 0 0 0 0.15 0"/>
<feBlend mode="normal" in2="BackgroundImageFix" result="effect1_dropShadow"/>
<feBlend mode="normal" in="SourceGraphic" in2="effect1_dropShadow" result="shape"/>
</filter>
<clipPath id="clip0">
<rect x="75" width="728" height="512" rx="20" fill="white"/>
</clipPath>
</defs>
</svg>
